[center][img]http://img220.imageshack.us/img220/356/iamnumberfourmtihcc.jpg[/img]



[img]http://leetleech.org/images/48874973695367351744.png[/img]


Format                           : AVI
Format/Info                      : Audio Video Interleave
File size                        : 1.23 GiB
Duration                         : 1h 38mn
Overall bit rate                 : 1 783 Kbps
Writing application              : AVI-Mux GUI 1.17.8.3, Feb 16 201019:42:50
Writing library                  : VirtualDub build 32839/release

Video
ID                               : 0
Format                           : MPEG-4 Visual
Format profile                   : Advanced Simple@L5
Format settings, BVOP            : Yes
Format settings, QPel            : No
Format settings, GMC             : No warppoints
Format settings, Matrix          : Custom
Codec ID                         : XVID
Codec ID/Hint                    : XviD
Duration                         : 1h 38mn
Bit rate                         : 1 645 Kbps
Width                            : 672 pixels
Height                           : 358 pixels
Display aspect ratio             : 1.877
Frame rate                       : 25.000 fps
Color space                      : YUV
Chroma subsampling               : 4:2:0
Bit depth                        : 8 bits
Scan type                        : Progressive
Bits/(Pixel*Frame)               : 0.274
Stream size                      : 1.13 GiB (92%)
Writing library                  : XviD 1.2.1 (UTC 2008-12-04)

Audio
ID                               : 1
Format                           : MPEG Audio
Format version                   : Version 1
Format profile                   : Layer 3
Codec ID                         : 55
Codec ID/Hint                    : MP3
Duration                         : 1h 38mn
Bit rate mode                    : Constant
Bit rate                         : 128 Kbps
Channel(s)                       : 2 channels
Sampling rate                    : 44.1 KHz
Stream size                      : 90.3 MiB (7%)
Alignment                        : Split accross interleaves
Interleave, duration             : 40 ms (1.00 video frame)
Interleave, preload duration     : 500 ms




[url]http://www.imdb.com/title/tt1464540/[/url]




[IMG]http://leetleech.org/images/89524873606771859129.png[/IMG]


Storyline

Extraordinary teen John Smith (Pettyfer) is a fugitive on the run from ruthless enemies sent to destroy him. Changing his identity, moving from town to town with his guardian Henri (Olyphant), John is always the new kid with no ties to his past. In the small Ohio town he now calls home, John encounters unexpected, life-changing events-his first love (Agron), powerful new abilities and a connection to the others who share his incredible destiny. 


Users: 6.5/10 (4,500 votes) 79 reviews | Critics: 126 reviews Metascore: 35/100 (based on 29 reviews from Metacritic.com)


Director:
D.J. Caruso
Writers:
Alfred Gough (screenplay), Miles Millar (screenplay), and 3 more credits »
Stars:
Alex Pettyfer, Timothy Olyphant and Dianna Agron




[img]http://leetleech.org/images/95521316153253938506.png[/img]




[img]http://img40.imageshack.us/img40/3254/vlcsnap2011030104h42m26.png[/img]
[img]http://img6.imageshack.us/img6/8070/vlcsnap2011030104h41m49.png[/img]
[img]http://img194.imageshack.us/img194/1605/vlcsnap2011030104h40m30.png[/img]
[img]http://img816.imageshack.us/img816/3908/vlcsnap2011030104h42m03.png[/img]


Video source   Russian  .......Thanks
Audio source   Them guys from Imagine again ............Thanks

Changed the rgb colours abit ,video denoise ,contrast/brightness ....Its watchable for now........Yes the first few mins are missing nothing can be done about that so either take or leave 

Enjoy !


Greetz to Imagine ,Flawl3ss ,Santi ,Vision ,Kingdom, BDK, TOXiC, iNK, THC, Ez, Rx,





[img]http://img411.imageshack.us/img411/6898/sig1n.jpg[/img]




